<svg id="Layer_1" enable-background="new 0 0 512.001 512.001" height="512" viewBox="0 0 512.001 512.001" width="512" xmlns="http://www.w3.org/2000/svg"><g><path d="m20 120.228v.046c0 29.121 23.607 52.728 52.728 52.728h60c-29.121 0-52.728-23.607-52.728-52.728v-.046c0-23.641 15.735-44.392 38.499-50.771l.169-16.863-60.169 16.862c-22.764 6.38-38.499 27.131-38.499 50.772z" fill="#cee1f2"/><path d="m458.822 50.223-157.54-43.965c-29.958-8.36-61.624-8.344-91.571.051l-156.609 43.889c-31.266 8.763-53.102 37.56-53.102 70.075 0 40.103 32.625 72.728 72.728 72.728h366.545c40.102 0 72.728-32.625 72.728-72.728-.001-32.506-21.868-61.313-53.179-70.05zm-19.549 102.778h-366.545c-18.046 0-32.728-14.682-32.728-32.774 0-14.611 9.826-27.57 23.896-31.514l156.608-43.89c11.475-3.215 23.279-4.823 35.083-4.823 11.755 0 23.512 1.596 34.942 4.785l157.541 43.965c14.09 3.933 23.93 16.895 23.93 31.523 0 18.046-14.681 32.728-32.727 32.728zm-143.273 279c-11.046 0-20-8.954-20-20v-161c0-11.046 8.954-20 20-20s20 8.954 20 20v161c0 11.046-8.954 20-20 20zm-81 0c-11.046 0-20-8.954-20-20v-161c0-11.046 8.954-20 20-20s20 8.954 20 20v161c0 11.046-8.954 20-20 20zm-160 1c-11.046 0-20-8.954-20-20v-162c0-11.046 8.954-20 20-20s20 8.954 20 20v162c0 11.046-8.954 20-20 20zm81-1c-11.046 0-20-8.954-20-20v-161c0-11.046 8.954-20 20-20s20 8.954 20 20v161c0 11.046-8.954 20-20 20zm206 60c0 11.046-8.954 20-20 20h-302c-11.046 0-20-8.954-20-20s8.954-20 20-20h302c11.046 0 20 8.954 20 20z" fill="#1428bf"/><path d="m512 411.578c0 17.404-7.062 33.796-19.887 46.154-9.063 8.734-20.147 14.633-32.113 17.237v17.032c0 11.046-8.954 20-20 20s-20-8.954-20-20v-18.477c-13.336-2.556-28.975-6.811-44.388-12.937-10.265-4.081-15.278-15.709-11.198-25.974 4.081-10.265 15.71-15.274 25.973-11.198 22.677 9.015 46.095 13.069 55.481 13.069 14.165 0 26.131-11.405 26.131-24.906 0-13.733-14.073-24.906-31.37-24.906-20.688 0-38.766-6.201-52.277-17.934-13.768-11.957-21.352-28.554-21.352-46.737 0-33.316 23.075-60.048 54-64.492v-19.508c0-11.046 8.954-20 20-20s20 8.954 20 20v21.883c10.021 1.981 21.727 5.218 35.249 10.477 10.295 4.003 15.395 15.594 11.391 25.889s-15.594 15.396-25.889 11.391c-24.575-9.557-40.484-10.782-51.599-10.782-13.199 0-23.152 10.809-23.152 25.143 0 14.757 13.515 24.671 33.63 24.671 39.354-.001 71.37 29.116 71.37 64.905zm-256-337.577c-13.807 0-25 11.193-25 25s11.193 25 25 25 25-11.193 25-25-11.193-25-25-25z" fill="#ff5cf4"/></g></svg>