<?xml version="1.0"?>
<svg xmlns="http://www.w3.org/2000/svg" xmlns:xlink="http://www.w3.org/1999/xlink" version="1.1" id="Layer_1" x="0px" y="0px" viewBox="0 0 496.158 496.158" style="enable-background:new 0 0 496.158 496.158;" xml:space="preserve" width="512px" height="512px" class=""><g><path style="fill:#D1D8FF" d="M248.082,0.003C111.071,0.003,0,111.062,0,248.085c0,137.001,111.07,248.07,248.082,248.07  c137.006,0,248.076-111.069,248.076-248.07C496.159,111.062,385.088,0.003,248.082,0.003z" data-original="#8E8376" class="" data-old_color="#D0D7FD"/><g>
	<g>
		<path style="fill:#354DEB" d="M329.619,211.824c-4.833-21.529-14.712-40.982-33.01-54.47    c-9.47-6.981-21.788-12.126-35.972-14.464c-26.351-4.346-48.649,1.374-66.711,11.801c-27.466,15.861-48.853,43.044-64.821,78.701    c-3.707,8.279-7.846,18.719-10.352,28.063c-1.287,4.807-3.91,12.313,1.706,13.984c2.156,0.643,4.778-0.174,5.888-2.406    c0.535-1.078,0.53-2.313,0.774-3.674c0.594-3.31,1.878-7.292,2.957-10.64c10.562-32.806,27.403-60.036,47.132-78.825    c11.24-10.705,24.25-19.502,39.302-24.183c15.109-4.698,32.052-6.27,52.225-0.793c19.813,5.381,31.506,17.19,39.737,30.157    c7.946,12.521,12.593,28.924,13.782,45.227c1.216,16.688-2.913,37.795-9.297,55.821c-3.345,9.446-7.402,17.459-12.474,24.241    c-4.919,6.582-10.33,12.204-15.937,18.386c1.455-5.802,4.401-10.618,7.164-15.389c5.555-9.587,11.142-18.45,15.575-30.331    c1.041-2.791,2.037-5.613,2.751-8.701c1.066-4.607,3.098-11.736-2.979-12.756c-2.167-0.363-4.292,0.807-5.204,2.592    c-0.631,1.236-0.767,3.586-1.042,5.069c-2.658,14.166-9.178,24.331-15.483,35.077c-1.798,3.066-3.501,6.104-5.192,9.2    c-3.366,6.157-6.494,13.727-6.383,21.469c0.038,2.653,0.287,4.901,0.983,7.29c0.28,0.959,0.658,1.525,0.571,2.566    c-0.192,2.262-1.507,4.659-2.619,6.639c-3.163,5.633-7.396,10.894-10.968,15.102c-5.212,6.141-10.835,12.027-16.19,17.371    c-9.712,9.689-19.534,18.795-29.951,27.633c-1.413,1.198-3.602,2.738-4.22,4.008c-1.924,3.947,2.48,9.092,6.913,6.678    c2.01-1.093,4.382-3.674,6.231-5.252c6.142-5.243,12.316-10.887,18.114-16.332c8.054-7.564,15.689-15.129,23.173-23.471    c3.642-4.061,7.169-8.314,10.79-13.26c3.369-4.604,7.268-10.484,8.438-16.617c0.678-3.551,2.356-6.107,4.146-8.436    c5.027-6.521,11.667-12.656,16.61-18.936c3.567-4.529,7.006-9.369,9.859-14.873c8.638-16.668,14.357-39.125,16.36-57.915    C333.346,234.497,332.124,222.973,329.619,211.824z" data-original="#6B645C" class="active-path" data-old_color="#354EED"/>
		<path style="fill:#354DEB" d="M346.831,253.25c1.32-11.479,0.562-22.467-0.996-32.674c-0.513-3.367-1.178-6.854-2.341-9.649    c-1.729-4.149-8.373-4.378-9.478,0.923c-0.407,1.965,0.895,5.064,1.285,6.951c2.373,11.465,2.934,24.006,0.982,37.811    c-0.747,5.284-1.884,10.732-3.066,15.75c-2.807,11.918-6.608,21.845-11.186,32.346c-4.319,9.91-9.235,19.203-14.43,28.018    c-15.463,26.242-33.19,48.438-52.292,68.738c-4.463,4.742-9.495,9.947-14.451,14.795c-1.416,1.386-4.041,3.528-4.563,5.283    c-1.085,3.644,2.694,7.958,6.877,6.035c1.987-0.914,4.759-4.201,6.514-5.91c4.406-4.295,8.027-8.607,12.523-12.691    c6.506-5.91,13.226-10.852,20.468-16.119c2.329-1.693,4.716-3.373,7.086-4.92c4.84-3.153,9.578-6.056,15.149-8.002    c8.412-2.938,15.123-7.49,20.683-15.746c6.036-8.962,10.272-21.945,12.768-34.336c0.373-1.858,0.833-3.846,0.678-5.271    c-0.496-4.627-6.88-6.053-9.23-1.951c-0.686,1.199-0.907,3.031-1.232,4.6c-2.446,11.802-5.869,23.484-11.667,31.799    c-3.355,4.809-7.285,8.344-12.091,10.29c-2.446,0.991-4.934,1.724-7.37,2.852c-2.277,1.05-4.466,2.242-6.792,3.422    c16.945-22.413,32.496-45.769,44.416-76.513C340.768,284.389,345.041,268.828,346.831,253.25z" data-original="#6B645C" class="active-path" data-old_color="#354EED"/>
		<path style="fill:#354DEB" d="M286.372,217.855c-6.161-10.676-16.521-19.472-31.855-23.956    c-16.243-4.749-27.985-0.571-38.035,7.322c-14.626,11.485-25.594,30.996-34.108,52.529c-1.538,3.892-3.119,6.92-5.485,9.123    c-2.25,2.095-4.842,3.526-7.75,5.054c-8.146,4.279-16.09,8.654-22.089,17.471c-1.615,2.368-5.009,7.437-4.576,10.414    c0.561,3.828,5.695,5.848,8.603,2.727c0.854-0.916,1.269-2.375,1.903-3.58c4.229-8.02,10.585-13.297,17.6-16.365    c-10.979,16.869-22.373,32.025-37.941,41.014c-1.112,0.643-2.275,1.039-3.003,1.816c-3.004,3.213-0.83,8.774,4.008,8.521    c1.391-0.072,2.996-1.15,4.407-1.966c17.772-10.26,31.509-28.25,43.569-48.315c0.917-1.522,1.852-3.127,2.733-4.721    c0.896-1.62,2.078-3.174,2.733-4.721c0.845-1.993,1.342-4.148,2.07-6.159c7.679-21.214,18.072-41.614,31.987-53.622    c5.028-4.34,11.004-7.877,18.104-8.469c7.682-0.641,17.063,2.33,23.63,6.123c6.752,3.896,11.542,9.107,14.669,14.525    c6.747,11.689,8.417,26.178,5.126,42.695c-3.448,17.307-11.686,31.754-20.236,43.032c-8.869,11.702-18.688,20.991-28.76,29.843    c-17.57,15.436-37.015,29.084-52.612,48.408c-1.002,1.24-2.104,2.771-3.268,4.369c-1.404,1.926-3.368,3.979-2.839,6.684    c0.707,3.629,5.555,5.061,8.13,2.914c1.334-1.109,2.333-3.251,3.497-4.83c8.11-10.991,17.872-19.475,27.624-27.943    c11.412-9.911,22.59-18.679,33.482-28.678c0.767,8.713-4.032,16.959-8.347,22.932c-8.813,12.197-19.935,21.935-30.917,30.837    c-3.994,3.238-8.317,6.456-12.741,9.591c-1.455,1.029-3.356,1.951-4.135,3.297c-2.252,3.892,1.209,8.295,5.354,7.414    c1.763-0.377,3.633-2.036,5.388-3.277c12.067-8.547,23.387-17.785,34.05-28.842c6.11-6.336,11.762-13.162,16.438-21.816    c4.495-8.319,6.346-17.729,4.039-25.241c-0.294-0.962-0.795-1.817-1.034-2.794c8.944-9.133,17.595-19.381,24.568-31.805    c7.232-12.884,12.229-27.578,13.625-43.02C295.316,241.594,292.613,228.666,286.372,217.855z" data-original="#6B645C" class="active-path" data-old_color="#354EED"/>
		<path style="fill:#354DEB" d="M328.435,377.85c-2.822,0.201-5.349,3.525-7.412,5.355c-14.774,13.097-32.273,23.752-51.38,29.336    c-2.734,0.797-6.271,1.628-5.9,5.969c0.143,1.676,0.985,3.176,3.004,4.059c2.309,1.008,4.291-0.031,6.473-0.678    c17.047-5.055,32.138-13.482,46.01-24.169c3.854-2.969,7.242-5.839,10.993-9.325c1.298-1.205,2.614-2.34,3.209-3.755    C334.671,381.703,332.561,377.555,328.435,377.85z" data-original="#6B645C" class="active-path" data-old_color="#354EED"/>
		<path style="fill:#354DEB" d="M235.102,313.297c-1.753,0.242-3.637,1.838-5.308,2.982c-18.327,12.547-35.824,26.799-51.992,43.75    c-4.21,4.413-8.598,9.244-12.773,14.406c-1.409,1.74-3.234,3.408-3.708,5.614c-0.548,2.55,0.825,4.804,3.197,5.681    c3.824,1.418,5.972-1.943,8.039-4.557c11.903-15.068,25.245-27.334,39.328-38.756c8-6.488,15.311-12.316,23.844-18.152    c1.546-1.057,3.746-2.097,4.585-3.805C241.783,317.469,239.761,312.651,235.102,313.297z" data-original="#6B645C" class="active-path" data-old_color="#354EED"/>
		<path style="fill:#354DEB" d="M231.32,297.285c-0.913-0.289-2.299-0.193-3.608-0.234c-3.838-0.119-8.07-0.783-11.542-0.366    c-9.237,1.112-14.824,9.103-20.959,15.989c-12.313,13.824-23.96,27.859-38.622,37.685c-1.606,1.077-3.644,2.32-5.609,3.321    c-1.718,0.877-4.588,1.774-5.61,3.323c-1.921,2.917-0.536,6.238,2.209,7.409c2.687,1.143,4.928-0.294,7.2-1.428    c10.699-5.349,20.087-13.729,28.658-22.42c7.234-7.334,14.565-15.878,21.759-24.061c2.345-2.67,4.709-5.801,7.331-7.791    c2.276-1.728,5.207-2.331,8.633-2.09c3.072,0.217,7.207,1.061,9.971,0.364C236.038,305.75,235.727,298.672,231.32,297.285z" data-original="#6B645C" class="active-path" data-old_color="#354EED"/>
		<path style="fill:#354DEB" d="M267.726,227.959c-2.792-4.834-6.977-9.186-12.721-12.008c-6.377-3.133-14.079-3.924-19.806-2.791    c-17.006,3.361-26.214,22.514-33.226,42.592c-2.396,6.859-4.134,13.797-6.558,20.164c-2.457,6.455-5.904,11.873-9.573,16.941    c-10.781,14.889-23.534,25.906-37.03,36.434c-3.209,2.504-6.688,4.97-10.272,7.421c-1.276,0.872-2.608,1.829-3.096,2.946    c-1.553,3.556,0.804,6.857,4.278,7.125c1.783,0.136,3.329-0.979,5.098-2.199c10.608-7.326,20.887-15.59,30.294-24.604    c5.452-5.228,10.708-10.624,15.641-16.892c4.909-6.236,9.636-13.313,13.063-21.354c1.775-4.163,3.01-8.606,4.421-12.975    c3.988-12.349,8.707-27.007,16-36.615c4.902-6.461,10.852-10.487,20.153-9.073c7.104,1.08,12.031,5.227,14.818,10.056    c0.76,1.314,2.268,3.696,2.297,5.124c0.074,3.561,0.173,7.252-0.636,11.367c-2.451,12.492-8.74,22.693-16.393,27.91    c-3.771,2.57-8.885,4.285-14.763,2.65c-1.773-0.492-3.775-1.391-6.136-1.75c-3.752-0.57-7.181-0.244-10.265,1.13    c-2.702,1.204-5.966,3.499-6.9,6.963c-0.897,3.325,2.022,6.864,5.917,6.097c1.168-0.232,2.04-0.771,2.73-1.576    c0.735-0.859,1.104-1.795,2.201-2.348c0.762-0.385,1.769-0.609,2.885-0.59c2.524,0.038,4.458,1.016,6.582,1.657    c6.084,1.837,12.372,1.13,17.311-0.814c6.813-2.683,11.699-7.071,16.517-13.508c0.041-0.169,0.143-0.233,0.276-0.241    c-3.909,11.311-10.012,19.771-17.246,26.004c-1.075,0.926-2.338,1.906-2.828,3.123c-1.421,3.517,0.826,6.832,4.648,6.908    c2.75,0.057,5.339-2.895,7.106-4.598c6.145-5.929,11.894-13.549,15.792-22.932C277.008,262.768,275.871,242.072,267.726,227.959z" data-original="#6B645C" class="active-path" data-old_color="#354EED"/>
		<path style="fill:#354DEB" d="M311.911,227.426c-0.4-0.908-1.165-2-1.3-2.971c-0.612-4.359,0.045-8.938,0.33-13.756    c0.276-4.696,0.108-8.986-0.812-13.014c-1.693-7.412-7.432-14.285-12.887-19.605c-8.383-8.178-21.097-15.396-36.17-18.817    c-4.688-1.064-10.503-2.622-12.242,1.858c-1.219,3.142,0.49,5.932,3.325,6.764c1.501,0.441,3.159,0.436,4.633,0.718    c9.693,1.858,20.473,6.409,28.196,12.171c4.302,3.209,8.021,6.975,10.993,11.021c2.913,3.969,5.602,8.432,5.065,14.362    c-0.32-0.007-0.738-0.655-1.063-1.124c-7.74-11.131-18.252-21.295-34.794-27.467c-3.684-1.376-8.31-2.857-13.201-3.958    c-1.555-0.35-3.263-0.519-4.501-1.206c-0.867-0.482-1.404-1.703-1.974-2.418c-1.915-2.406-4.368-4.563-7.808-6.078    c-4.72-2.076-10.038-2.157-14.345-1.641c-17.634,2.115-30.04,12.051-42.469,23.858c-4.375,4.158-8.773,8.849-13.061,13.91    c-1.348,1.593-3.426,3.505-4.019,5.216c-1.897,5.489,5.026,8.669,8.365,5.179c1.116-1.167,2.06-2.533,3.109-3.78    c7.085-8.43,15.067-16.644,23.583-23.047c7.43-5.586,15.033-10.016,25.155-11.299c3.325-0.422,7.109-0.638,10.765,1.312    c-27.344,6.013-48.037,23.591-62.529,52.149c-2.257,4.449-4.622,10.125-6.374,15.178c-1.806,5.208-3.292,10.984-7.689,13.043    c-3.846-6.6-1.183-17.689,3.139-25.801c0.947-1.777,1.992-3.289,1.709-5.203c-0.562-3.807-5.858-5.561-8.603-2.726    c-1.03,1.064-1.758,2.886-2.583,4.552c-2.459,4.969-4.266,10.02-5.07,15.003c-1.233,7.66-0.028,13.561,2.554,19.039    c-8.006,9.847-17.356,21.604-22.858,36.77c-0.81,2.231-1.708,4.7-2.286,7.36c-1.092,5-1.969,9.841,2.411,11.344    c2.428,0.832,5.234-0.232,6.234-2.525c0.493-1.129,0.395-2.451,0.58-3.727c1.258-8.688,5.523-16.926,9.413-23.383    c4.654-7.725,9.637-14.006,15.013-20.414c5.703-0.785,9.521-3.75,12.499-8.291c3.11-4.744,4.504-10.969,6.82-16.842    c8.922-22.626,23.146-39.396,40.555-48.809c6.451-3.486,13.54-6.26,21.645-7.204c2.653-0.311,5.708-0.501,8.457-0.251    c2.038,0.186,4.419,1.221,6.751,1.81c24.91,6.275,37.623,23.515,45.575,40.845c0.743,1.617,1.341,3.379,2.129,4.976    c1.611,3.276,2.58,6.745,1.577,11.331c-0.54,2.467-1.643,4.452-1.517,6.83c0.231,4.306,5.966,6.2,8.748,2.973    c1.386-1.607,2.08-5.24,2.559-7.6C315.073,237.014,314.066,232.308,311.911,227.426z" data-original="#6B645C" class="active-path" data-old_color="#354EED"/>
		<path style="fill:#354DEB" d="M356.564,274.842c0.55-2.282,1.548-5.057,1.393-6.759c-0.395-4.306-6.315-6.104-9.002-2.413    c-1.062,1.462-1.45,3.975-1.945,6.088c-2.504,10.698-5.238,23.01-4.858,32.993c0.153,3.957,1.228,7.597,2.023,11.239    c1.66,7.605,2.292,15.611,1.535,24.01c-0.597,6.627-2.446,13.945-5.761,19.537c-0.781,1.316-2.804,3.369-3.041,5.479    c-0.252,2.26,1.367,4.447,3.549,5.146c3.709,1.19,5.779-1.795,7.752-5.055c3.37-5.566,5.751-12.68,6.862-19.346    c1.652-9.9,0.973-18.047-0.104-25.83c-0.563-4.072-1.583-7.811-2.458-11.566c-0.858-3.676-0.572-8.278-0.003-12.902    C353.358,288.543,355.018,281.268,356.564,274.842z" data-original="#6B645C" class="active-path" data-old_color="#354EED"/>
		<path style="fill:#354DEB" d="M371.037,254.494c-2.458-17.043-6.459-32.106-13.343-46.473    c-3.433-7.167-7.904-13.471-12.114-20.133c-4.116-6.512-7.449-13.781-10.01-21.354c-2.593-7.67-4.626-15.482-7.898-22.566    c-3.243-7.021-8.275-13.467-15.245-18.244c-7.386-5.064-16.675-8.455-26.203-11.008c-10.053-2.693-19.205-4.324-29.074-5.379    c-19.303-2.064-36.668-0.514-52.053,3.67c-28.619,7.781-53.344,25.807-71.331,52.518c-1.194,1.775-2.789,3.654-3.556,5.446    c-2.393,5.579,4.626,9.202,8.083,5.835c0.719-0.699,1.286-1.924,1.941-2.941c14.603-22.638,33.319-38.123,55.664-47.275    c15.273-6.258,33.284-9.144,53.082-7.906c9.922,0.621,20.74,2.588,30.314,4.664c11.206,2.43,21.156,5.914,28.505,11.414    c7.115,5.326,11.029,12.529,13.507,20.82c-3.543-1.721-6.4-3.57-9.097-5.584c-2.721-2.031-4.865-4.438-7.383-6.488    c-13.926-11.336-38.855-18.324-58.66-18.238c-3.685,0.016-9.155-0.342-9.057,5.23c0.029,1.695,1.112,3.695,2.897,4.447    c2.014,0.849,4.313,0.318,6.31,0.328c12.393,0.051,26.13,2.865,38.146,7.914c3.869,1.627,7.457,3.465,11.006,5.887    c3.185,2.174,5.665,4.842,8.55,7.221c4.831,3.98,11.313,7.787,18.321,10.678c1.004,0.415,2.351,0.74,3.026,1.23    c0.696,0.508,1.162,2.837,1.625,4.107c3.453,9.438,8.379,18.758,13.969,26.922c13.193,19.275,19.281,42.521,21.262,67.789    c0.864,11.029,1.178,22.676,0.418,34.827c-0.107,1.709-0.434,3.452-0.332,5.155c0.126,2.117,1.446,3.791,3.119,4.4    c3.136,1.145,5.833-0.586,6.639-3.252c0.594-1.963,0.51-4.746,0.662-7.166C373.772,284.6,373.118,268.92,371.037,254.494z" data-original="#6B645C" class="active-path" data-old_color="#354EED"/>
		<path style="fill:#354DEB" d="M245.458,231.225c-1.435-0.391-3.979-0.354-5.827,0.219c-6.018,1.863-11.956,8.046-15.881,15.043    c-4.503,8.031-5.692,17.5-0.557,22.818c1.145,1.186,3.021,2.365,5.131,3.158c2.553,0.961,5.872,0.89,8.306-0.081    c7.377-2.942,12.665-13.812,14.771-23.417C253.067,241.355,253.434,233.372,245.458,231.225z M236.327,259.82    c-1.338,1.854-4.701,5.278-6.272,1.885c-1.655-3.57,2.171-10.061,3.896-12.591c2.155-3.156,4.444-5.874,7.252-7.495    c0.315-0.181,0.816-0.605,1.136-0.325C242.094,247.375,239.717,255.121,236.327,259.82z" data-original="#6B645C" class="active-path" data-old_color="#354EED"/>
		<path style="fill:#354DEB" d="M224.693,126.754c-1.274-0.213-3.054,0.359-4.608,0.758c-33.493,8.617-60.655,26.834-82.141,56.859    c-5.292,7.396-10.765,16.055-15.533,25.098c-1.617,3.064-4.381,7.386-4.026,9.934c0.197,1.42,1.2,2.949,2.885,3.711    c2.05,0.926,4.249,0.451,5.567-0.816c1.019-0.979,1.676-2.779,2.354-4.088c17.027-32.859,37.967-57.377,66.142-71.109    c8.954-4.365,17.017-7.268,26.945-9.77c2.128-0.536,4.47-0.902,5.745-2.656C230.376,131.441,228.558,127.402,224.693,126.754z" data-original="#6B645C" class="active-path" data-old_color="#354EED"/>
		<path style="fill:#354DEB" d="M376.269,213.836c-3.471-18.813-9.53-35.514-19.217-50.77c-2.48-3.91-5.454-8.01-8.916-11.727    c-1.215-1.303-2.556-2.782-4.173-3.215c-4.128-1.107-7.114,2.864-6.102,6.336c0.374,1.285,1.757,2.355,2.91,3.611    c7.167,7.799,12.521,17.566,16.545,27.089c4.061,9.608,7.261,20.147,9.226,31.315c0.501,2.844,0.557,5.043,3.457,6.274    c2.974,1.265,6.109-0.356,6.817-3.522C377.171,217.642,376.594,215.598,376.269,213.836z" data-original="#6B645C" class="active-path" data-old_color="#354EED"/>
		<path style="fill:#354DEB" d="M346.587,134.039c-0.341-1.719-2.553-3.879-4.156-5.625    c-11.079-12.053-27.298-21.764-46.767-28.577c-3.029-1.061-5.891-1.714-8.158-2.815c-12.336-5.998-16.895-16.691-31.58-21.47    c-2.588-0.843-5.508-1.335-8.251-1.687c-4.706-0.602-10.945-1.777-11.708,3.783c-0.292,2.105,0.694,4.344,2.785,5.257    c1.098,0.479,2.494,0.432,3.849,0.508c3.538,0.197,7.477,0.639,11.487,2.134c4.9,1.828,7.859,4.16,11.353,7.342    c-18.984-1.352-36.939-0.569-54.22,2.357c-12.516,2.12-24.018,6.143-34.987,11.6c-1.633,0.813-3.507,1.694-5.353,2.76    c-1.731,1-4.063,2.057-4.924,3.505c-2.144,3.61,0.666,7.829,4.688,7.55c1.615-0.113,3.167-1.254,4.752-2.082    c4.508-2.354,9.224-4.809,13.847-6.673c19.157-7.729,41.41-10.071,65.299-9.665c9.671,0.165,21.636,1.842,31.365,5.049    c6.316,2.082,11.677,3.664,17.582,6.391c13.142,6.068,24.507,13.418,32.542,22.566c1.205,1.371,2.483,3.088,3.968,3.58    C343.537,140.996,347.345,137.885,346.587,134.039z" data-original="#6B645C" class="active-path" data-old_color="#354EED"/>
		<path style="fill:#354DEB" d="M222.512,76.98c-2.135-0.226-4.791,0.813-6.781,1.434c-4.547,1.42-7.857,2.732-12.148,5.03    c-2.393,1.28-7.242,2.907-6.32,7.536c0.316,1.582,1.643,2.979,3.232,3.594c2.913,1.123,5.419-1.029,7.728-2.23    c4.358-2.265,8.749-4.25,13.898-5.295c2.25-0.455,4.364-1.412,4.84-4.365C227.402,79.945,225.261,77.27,222.512,76.98z" data-original="#6B645C" class="active-path" data-old_color="#354EED"/>
		<path style="fill:#354DEB" d="M308.45,92.039c-0.603-1.422-2.818-2.887-4.745-4.207c-3.72-2.55-7.621-4.691-12.324-6.45    c-4.5-1.683-9.064-3.179-11.236,0.45c-1.41,2.359-0.74,5.287,1.238,6.73c1.273,0.929,4.15,1.381,5.863,1.99    c3.987,1.418,7.188,3.066,10.187,5.036c1.618,1.065,2.987,2.501,4.811,3.179c0.231,0.086,1.622,0.439,2.551,0.264    C307.763,98.467,309.592,94.731,308.45,92.039z" data-original="#6B645C" class="active-path" data-old_color="#354EED"/>
	</g>
	<path style="fill:#354DEB" d="M346.587,134.039c-0.341-1.719-2.553-3.879-4.156-5.625c-11.079-12.053-27.298-21.764-46.767-28.577   c-3.029-1.061-5.891-1.714-8.158-2.815c-12.336-5.998-16.895-16.691-31.58-21.47c-2.588-0.843-5.508-1.335-8.251-1.687   c-4.706-0.602-10.945-1.777-11.708,3.783c-0.292,2.105,0.694,4.344,2.785,5.257c1.098,0.479,2.494,0.432,3.849,0.508   c3.538,0.197,7.477,0.639,11.487,2.134c4.9,1.828,7.859,4.16,11.353,7.342c-18.984-1.352-36.939-0.569-54.22,2.357   c-12.516,2.12-24.018,6.143-34.987,11.6c-1.633,0.813-3.507,1.694-5.353,2.76c-1.731,1-4.063,2.057-4.924,3.505   c-2.144,3.61,0.666,7.829,4.688,7.55c1.615-0.113,3.167-1.254,4.752-2.082c4.508-2.354,9.224-4.809,13.847-6.673   c19.157-7.729,41.41-10.071,65.299-9.665c9.671,0.165,21.636,1.842,31.365,5.049c6.316,2.082,11.677,3.664,17.582,6.391   c13.142,6.068,24.507,13.418,32.542,22.566c1.205,1.371,2.483,3.088,3.968,3.58C343.537,140.996,347.345,137.885,346.587,134.039z" data-original="#6B645C" class="active-path" data-old_color="#354EED"/>
	<path style="fill:#354DEB" d="M311.911,227.426c-0.4-0.908-1.165-2-1.3-2.971c-0.612-4.359,0.045-8.938,0.33-13.756   c0.276-4.696,0.108-8.986-0.812-13.014c-1.693-7.412-7.432-14.285-12.887-19.605c-8.383-8.178-21.097-15.396-36.17-18.817   c-4.688-1.064-10.503-2.622-12.242,1.858c-1.219,3.142,0.49,5.932,3.325,6.764c1.501,0.441,3.159,0.436,4.633,0.718   c9.693,1.858,20.473,6.409,28.196,12.171c4.302,3.209,8.021,6.975,10.993,11.021c2.913,3.969,5.602,8.432,5.065,14.362   c-0.32-0.007-0.738-0.655-1.063-1.124c-7.74-11.131-18.252-21.295-34.794-27.467c-3.684-1.376-8.31-2.857-13.201-3.958   c-1.555-0.35-3.263-0.519-4.501-1.206c-0.867-0.482-1.404-1.703-1.974-2.418c-1.915-2.406-4.368-4.563-7.808-6.078   c-4.72-2.076-10.038-2.157-14.345-1.641c-17.634,2.115-30.04,12.051-42.469,23.858c-4.375,4.158-8.773,8.849-13.061,13.91   c-1.348,1.593-3.426,3.505-4.019,5.216c-1.897,5.489,5.026,8.669,8.365,5.179c1.116-1.167,2.06-2.533,3.109-3.78   c7.085-8.43,15.067-16.644,23.583-23.047c7.43-5.586,15.033-10.016,25.155-11.299c3.325-0.422,7.109-0.638,10.765,1.312   c-27.344,6.013-48.037,23.591-62.529,52.149c-2.257,4.449-4.622,10.125-6.374,15.178c-1.806,5.208-3.292,10.984-7.689,13.043   c-3.846-6.6-1.183-17.689,3.139-25.801c0.947-1.777,1.992-3.289,1.709-5.203c-0.562-3.807-5.858-5.561-8.603-2.726   c-1.03,1.064-1.758,2.886-2.583,4.552c-2.459,4.969-4.266,10.02-5.07,15.003c-1.233,7.66-0.028,13.561,2.554,19.039   c-8.006,9.847-17.356,21.604-22.858,36.77c-0.81,2.231-1.708,4.7-2.286,7.36c-1.092,5-1.969,9.841,2.411,11.344   c2.428,0.832,5.234-0.232,6.234-2.525c0.493-1.129,0.395-2.451,0.58-3.727c1.258-8.688,5.523-16.926,9.413-23.383   c4.654-7.725,9.637-14.006,15.013-20.414c5.703-0.785,9.521-3.75,12.499-8.291c3.11-4.744,4.504-10.969,6.82-16.842   c8.922-22.626,23.146-39.396,40.555-48.809c6.451-3.486,13.54-6.26,21.645-7.204c2.653-0.311,5.708-0.501,8.457-0.251   c2.038,0.186,4.419,1.221,6.751,1.81c24.91,6.275,37.623,23.515,45.575,40.845c0.743,1.617,1.341,3.379,2.129,4.976   c1.611,3.276,2.58,6.745,1.577,11.331c-0.54,2.467-1.643,4.452-1.517,6.83c0.231,4.306,5.966,6.2,8.748,2.973   c1.386-1.607,2.08-5.24,2.559-7.6C315.073,237.014,314.066,232.308,311.911,227.426z" data-original="#6B645C" class="active-path" data-old_color="#354EED"/>
	<path style="fill:#354DEB" d="M224.693,126.754c-1.274-0.213-3.054,0.359-4.608,0.758c-33.493,8.617-60.655,26.834-82.141,56.859   c-5.292,7.396-10.765,16.055-15.533,25.098c-1.617,3.064-4.381,7.386-4.026,9.934c0.197,1.42,1.2,2.949,2.885,3.711   c2.05,0.926,4.249,0.451,5.567-0.816c1.019-0.979,1.676-2.779,2.354-4.088c17.027-32.859,37.967-57.377,66.142-71.109   c8.954-4.365,17.017-7.268,26.945-9.77c2.128-0.536,4.47-0.902,5.745-2.656C230.376,131.441,228.558,127.402,224.693,126.754z" data-original="#6B645C" class="active-path" data-old_color="#354EED"/>
	<path style="fill:#354DEB" d="M267.726,227.959c-2.792-4.834-6.977-9.186-12.721-12.008c-6.377-3.133-14.079-3.924-19.806-2.791   c-17.006,3.361-26.214,22.514-33.226,42.592c-2.396,6.859-4.134,13.797-6.558,20.164c-2.457,6.455-5.904,11.873-9.573,16.941   c-10.781,14.889-23.534,25.906-37.03,36.434c-3.209,2.504-6.688,4.97-10.272,7.421c-1.276,0.872-2.608,1.829-3.096,2.946   c-1.553,3.556,0.804,6.857,4.278,7.125c1.783,0.136,3.329-0.979,5.098-2.199c10.608-7.326,20.887-15.59,30.294-24.604   c5.452-5.228,10.708-10.624,15.641-16.892c4.909-6.236,9.636-13.313,13.063-21.354c1.775-4.163,3.01-8.606,4.421-12.975   c3.988-12.349,8.707-27.007,16-36.615c4.902-6.461,10.852-10.487,20.153-9.073c7.104,1.08,12.031,5.227,14.818,10.056   c0.76,1.314,2.268,3.696,2.297,5.124c0.074,3.561,0.173,7.252-0.636,11.367c-2.451,12.492-8.74,22.693-16.393,27.91   c-3.771,2.57-8.885,4.285-14.763,2.65c-1.773-0.492-3.775-1.391-6.136-1.75c-3.752-0.57-7.181-0.244-10.265,1.13   c-2.702,1.204-5.966,3.499-6.9,6.963c-0.897,3.325,2.022,6.864,5.917,6.097c1.168-0.232,2.04-0.771,2.73-1.576   c0.735-0.859,1.104-1.795,2.201-2.348c0.762-0.385,1.769-0.609,2.885-0.59c2.524,0.038,4.458,1.016,6.582,1.657   c6.084,1.837,12.372,1.13,17.311-0.814c6.813-2.683,11.699-7.071,16.517-13.508c0.041-0.169,0.143-0.233,0.276-0.241   c-3.909,11.311-10.012,19.771-17.246,26.004c-1.075,0.926-2.338,1.906-2.828,3.123c-1.421,3.517,0.826,6.832,4.648,6.908   c2.75,0.057,5.339-2.895,7.106-4.598c6.145-5.929,11.894-13.549,15.792-22.932C277.008,262.768,275.871,242.072,267.726,227.959z" data-original="#6B645C" class="active-path" data-old_color="#354EED"/>
	<path style="fill:#354DEB" d="M308.45,92.039c-0.603-1.422-2.818-2.887-4.745-4.207c-3.72-2.55-7.621-4.691-12.324-6.45   c-4.5-1.683-9.064-3.179-11.236,0.45c-1.41,2.359-0.74,5.287,1.238,6.73c1.273,0.929,4.15,1.381,5.863,1.99   c3.987,1.418,7.188,3.066,10.187,5.036c1.618,1.065,2.987,2.501,4.811,3.179c0.231,0.086,1.622,0.439,2.551,0.264   C307.763,98.467,309.592,94.731,308.45,92.039z" data-original="#6B645C" class="active-path" data-old_color="#354EED"/>
	<path style="fill:#354DEB" d="M222.512,76.98c-2.135-0.226-4.791,0.813-6.781,1.434c-4.547,1.42-7.857,2.732-12.148,5.03   c-2.393,1.28-7.242,2.907-6.32,7.536c0.316,1.582,1.643,2.979,3.232,3.594c2.913,1.123,5.419-1.029,7.728-2.23   c4.358-2.265,8.749-4.25,13.898-5.295c2.25-0.455,4.364-1.412,4.84-4.365C227.402,79.945,225.261,77.27,222.512,76.98z" data-original="#6B645C" class="active-path" data-old_color="#354EED"/>
	<path style="fill:#354DEB" d="M376.269,213.836c-3.471-18.813-9.53-35.514-19.217-50.77c-2.48-3.91-5.454-8.01-8.916-11.727   c-1.215-1.303-2.556-2.782-4.173-3.215c-4.128-1.107-7.114,2.864-6.102,6.336c0.374,1.285,1.757,2.355,2.91,3.611   c7.167,7.799,12.521,17.566,16.545,27.089c4.061,9.608,7.261,20.147,9.226,31.315c0.501,2.844,0.557,5.043,3.457,6.274   c2.974,1.265,6.109-0.356,6.817-3.522C377.171,217.642,376.594,215.598,376.269,213.836z" data-original="#6B645C" class="active-path" data-old_color="#354EED"/>
	<path style="fill:#354DEB" d="M245.458,231.225c-1.435-0.391-3.979-0.354-5.827,0.219c-6.018,1.863-11.956,8.046-15.881,15.043   c-4.503,8.031-5.692,17.5-0.557,22.818c1.145,1.186,3.021,2.365,5.131,3.158c2.553,0.961,5.872,0.89,8.306-0.081   c7.377-2.942,12.665-13.812,14.771-23.417C253.067,241.355,253.434,233.372,245.458,231.225z M236.327,259.82   c-1.338,1.854-4.701,5.278-6.272,1.885c-1.655-3.57,2.171-10.061,3.896-12.591c2.155-3.156,4.444-5.874,7.252-7.495   c0.315-0.181,0.816-0.605,1.136-0.325C242.094,247.375,239.717,255.121,236.327,259.82z" data-original="#6B645C" class="active-path" data-old_color="#354EED"/>
	<path style="fill:#354DEB" d="M356.564,274.842c0.55-2.282,1.548-5.057,1.393-6.759c-0.395-4.306-6.315-6.104-9.002-2.413   c-1.062,1.462-1.45,3.975-1.945,6.088c-2.504,10.698-5.238,23.01-4.858,32.993c0.153,3.957,1.228,7.597,2.023,11.239   c1.66,7.605,2.292,15.611,1.535,24.01c-0.597,6.627-2.446,13.945-5.761,19.537c-0.781,1.316-2.804,3.369-3.041,5.479   c-0.252,2.26,1.367,4.447,3.549,5.146c3.709,1.19,5.779-1.795,7.752-5.055c3.37-5.566,5.751-12.68,6.862-19.346   c1.652-9.9,0.973-18.047-0.104-25.83c-0.563-4.072-1.583-7.811-2.458-11.566c-0.858-3.676-0.572-8.278-0.003-12.902   C353.358,288.543,355.018,281.268,356.564,274.842z" data-original="#6B645C" class="active-path" data-old_color="#354EED"/>
	<path style="fill:#354DEB" d="M346.831,253.25c1.32-11.479,0.562-22.467-0.996-32.674c-0.513-3.367-1.178-6.854-2.341-9.649   c-1.729-4.149-8.373-4.378-9.478,0.923c-0.407,1.965,0.895,5.064,1.285,6.951c2.373,11.465,2.934,24.006,0.982,37.811   c-0.747,5.284-1.884,10.732-3.066,15.75c-2.807,11.918-6.608,21.845-11.186,32.346c-4.319,9.91-9.235,19.203-14.43,28.018   c-15.463,26.242-33.19,48.438-52.292,68.738c-4.463,4.742-9.495,9.947-14.451,14.795c-1.416,1.386-4.041,3.528-4.563,5.283   c-1.085,3.644,2.694,7.958,6.877,6.035c1.987-0.914,4.759-4.201,6.514-5.91c4.406-4.295,8.027-8.607,12.523-12.691   c6.506-5.91,13.226-10.852,20.468-16.119c2.329-1.693,4.716-3.373,7.086-4.92c4.84-3.153,9.578-6.056,15.149-8.002   c8.412-2.938,15.123-7.49,20.683-15.746c6.036-8.962,10.272-21.945,12.768-34.336c0.373-1.858,0.833-3.846,0.678-5.271   c-0.496-4.627-6.88-6.053-9.23-1.951c-0.686,1.199-0.907,3.031-1.232,4.6c-2.446,11.802-5.869,23.484-11.667,31.799   c-3.355,4.809-7.285,8.344-12.091,10.29c-2.446,0.991-4.934,1.724-7.37,2.852c-2.277,1.05-4.466,2.242-6.792,3.422   c16.945-22.413,32.496-45.769,44.416-76.513C340.768,284.389,345.041,268.828,346.831,253.25z" data-original="#6B645C" class="active-path" data-old_color="#354EED"/>
	<path style="fill:#354DEB" d="M328.435,377.85c-2.822,0.201-5.349,3.525-7.412,5.355c-14.774,13.097-32.273,23.752-51.38,29.336   c-2.734,0.797-6.271,1.628-5.9,5.969c0.143,1.676,0.985,3.176,3.004,4.059c2.309,1.008,4.291-0.031,6.473-0.678   c17.047-5.055,32.138-13.482,46.01-24.169c3.854-2.969,7.242-5.839,10.993-9.325c1.298-1.205,2.614-2.34,3.209-3.755   C334.671,381.703,332.561,377.555,328.435,377.85z" data-original="#6B645C" class="active-path" data-old_color="#354EED"/>
	<path style="fill:#354DEB" d="M371.037,254.494c-2.458-17.043-6.459-32.106-13.343-46.473   c-3.433-7.167-7.904-13.471-12.114-20.133c-4.116-6.512-7.449-13.781-10.01-21.354c-2.593-7.67-4.626-15.482-7.898-22.566   c-3.243-7.021-8.275-13.467-15.245-18.244c-7.386-5.064-16.675-8.455-26.203-11.008c-10.053-2.693-19.205-4.324-29.074-5.379   c-19.303-2.064-36.668-0.514-52.053,3.67c-28.619,7.781-53.344,25.807-71.331,52.518c-1.194,1.775-2.789,3.654-3.556,5.446   c-2.393,5.579,4.626,9.202,8.083,5.835c0.719-0.699,1.286-1.924,1.941-2.941c14.603-22.638,33.319-38.123,55.664-47.275   c15.273-6.258,33.284-9.144,53.082-7.906c9.922,0.621,20.74,2.588,30.314,4.664c11.206,2.43,21.156,5.914,28.505,11.414   c7.115,5.326,11.029,12.529,13.507,20.82c-3.543-1.721-6.4-3.57-9.097-5.584c-2.721-2.031-4.865-4.438-7.383-6.488   c-13.926-11.336-38.855-18.324-58.66-18.238c-3.685,0.016-9.155-0.342-9.057,5.23c0.029,1.695,1.112,3.695,2.897,4.447   c2.014,0.849,4.313,0.318,6.31,0.328c12.393,0.051,26.13,2.865,38.146,7.914c3.869,1.627,7.457,3.465,11.006,5.887   c3.185,2.174,5.665,4.842,8.55,7.221c4.831,3.98,11.313,7.787,18.321,10.678c1.004,0.415,2.351,0.74,3.026,1.23   c0.696,0.508,1.162,2.837,1.625,4.107c3.453,9.438,8.379,18.758,13.969,26.922c13.193,19.275,19.281,42.521,21.262,67.789   c0.864,11.029,1.178,22.676,0.418,34.827c-0.107,1.709-0.434,3.452-0.332,5.155c0.126,2.117,1.446,3.791,3.119,4.4   c3.136,1.145,5.833-0.586,6.639-3.252c0.594-1.963,0.51-4.746,0.662-7.166C373.772,284.6,373.118,268.92,371.037,254.494z" data-original="#6B645C" class="active-path" data-old_color="#354EED"/>
	<path style="fill:#354DEB" d="M329.619,211.824c-4.833-21.529-14.712-40.982-33.01-54.47c-9.47-6.981-21.788-12.126-35.972-14.464   c-26.351-4.346-48.649,1.374-66.711,11.801c-27.466,15.861-48.853,43.044-64.821,78.701c-3.707,8.279-7.846,18.719-10.352,28.063   c-1.287,4.807-3.91,12.313,1.706,13.984c2.156,0.643,4.778-0.174,5.888-2.406c0.535-1.078,0.53-2.313,0.774-3.674   c0.594-3.31,1.878-7.292,2.957-10.64c10.562-32.806,27.403-60.036,47.132-78.825c11.24-10.705,24.25-19.502,39.302-24.183   c15.109-4.698,32.052-6.27,52.225-0.793c19.813,5.381,31.506,17.19,39.737,30.157c7.946,12.521,12.593,28.924,13.782,45.227   c1.216,16.688-2.913,37.795-9.297,55.821c-3.345,9.446-7.402,17.459-12.474,24.241c-4.919,6.582-10.33,12.204-15.937,18.386   c1.455-5.802,4.401-10.618,7.164-15.389c5.555-9.587,11.142-18.45,15.575-30.331c1.041-2.791,2.037-5.613,2.751-8.701   c1.066-4.607,3.098-11.736-2.979-12.756c-2.167-0.363-4.292,0.807-5.204,2.592c-0.631,1.236-0.767,3.586-1.042,5.069   c-2.658,14.166-9.178,24.331-15.483,35.077c-1.798,3.066-3.501,6.104-5.192,9.2c-3.366,6.157-6.494,13.727-6.383,21.469   c0.038,2.653,0.287,4.901,0.983,7.29c0.28,0.959,0.658,1.525,0.571,2.566c-0.192,2.262-1.507,4.659-2.619,6.639   c-3.163,5.633-7.396,10.894-10.968,15.102c-5.212,6.141-10.835,12.027-16.19,17.371c-9.712,9.689-19.534,18.795-29.951,27.633   c-1.413,1.198-3.602,2.738-4.22,4.008c-1.924,3.947,2.48,9.092,6.913,6.678c2.01-1.093,4.382-3.674,6.231-5.252   c6.142-5.243,12.316-10.887,18.114-16.332c8.054-7.564,15.689-15.129,23.173-23.471c3.642-4.061,7.169-8.314,10.79-13.26   c3.369-4.604,7.268-10.484,8.438-16.617c0.678-3.551,2.356-6.107,4.146-8.436c5.027-6.521,11.667-12.656,16.61-18.936   c3.567-4.529,7.006-9.369,9.859-14.873c8.638-16.668,14.357-39.125,16.36-57.915C333.346,234.497,332.124,222.973,329.619,211.824z   " data-original="#6B645C" class="active-path" data-old_color="#354EED"/>
	<path style="fill:#354DEB" d="M231.32,297.285c-0.913-0.289-2.299-0.193-3.608-0.234c-3.838-0.119-8.07-0.783-11.542-0.366   c-9.237,1.112-14.824,9.103-20.959,15.989c-12.313,13.824-23.96,27.859-38.622,37.685c-1.606,1.077-3.644,2.32-5.609,3.321   c-1.718,0.877-4.588,1.774-5.61,3.323c-1.921,2.917-0.536,6.238,2.209,7.409c2.687,1.143,4.928-0.294,7.2-1.428   c10.699-5.349,20.087-13.729,28.658-22.42c7.234-7.334,14.565-15.878,21.759-24.061c2.345-2.67,4.709-5.801,7.331-7.791   c2.276-1.728,5.207-2.331,8.633-2.09c3.072,0.217,7.207,1.061,9.971,0.364C236.038,305.75,235.727,298.672,231.32,297.285z" data-original="#6B645C" class="active-path" data-old_color="#354EED"/>
	<path style="fill:#354DEB" d="M235.102,313.297c-1.753,0.242-3.637,1.838-5.308,2.982c-18.327,12.547-35.824,26.799-51.992,43.75   c-4.21,4.413-8.598,9.244-12.773,14.406c-1.409,1.74-3.234,3.408-3.708,5.614c-0.548,2.55,0.825,4.804,3.197,5.681   c3.824,1.418,5.972-1.943,8.039-4.557c11.903-15.068,25.245-27.334,39.328-38.756c8-6.488,15.311-12.316,23.844-18.152   c1.546-1.057,3.746-2.097,4.585-3.805C241.783,317.469,239.761,312.651,235.102,313.297z" data-original="#6B645C" class="active-path" data-old_color="#354EED"/>
	<path style="fill:#354DEB" d="M286.372,217.855c-6.161-10.676-16.521-19.472-31.855-23.956   c-16.243-4.749-27.985-0.571-38.035,7.322c-14.626,11.485-25.594,30.996-34.108,52.529c-1.538,3.892-3.119,6.92-5.485,9.123   c-2.25,2.095-4.842,3.526-7.75,5.054c-8.146,4.279-16.09,8.654-22.089,17.471c-1.615,2.368-5.009,7.437-4.576,10.414   c0.561,3.828,5.695,5.848,8.603,2.727c0.854-0.916,1.269-2.375,1.903-3.58c4.229-8.02,10.585-13.297,17.6-16.365   c-10.979,16.869-22.373,32.025-37.941,41.014c-1.112,0.643-2.275,1.039-3.003,1.816c-3.004,3.213-0.83,8.774,4.008,8.521   c1.391-0.072,2.996-1.15,4.407-1.966c17.772-10.26,31.509-28.25,43.569-48.315c0.917-1.522,1.852-3.127,2.733-4.721   c0.896-1.62,2.078-3.174,2.733-4.721c0.845-1.993,1.342-4.148,2.07-6.159c7.679-21.214,18.072-41.614,31.987-53.622   c5.028-4.34,11.004-7.877,18.104-8.469c7.682-0.641,17.063,2.33,23.63,6.123c6.752,3.896,11.542,9.107,14.669,14.525   c6.747,11.689,8.417,26.178,5.126,42.695c-3.448,17.307-11.686,31.754-20.236,43.032c-8.869,11.702-18.688,20.991-28.76,29.843   c-17.57,15.436-37.015,29.084-52.612,48.408c-1.002,1.24-2.104,2.771-3.268,4.369c-1.404,1.926-3.368,3.979-2.839,6.684   c0.707,3.629,5.555,5.061,8.13,2.914c1.334-1.109,2.333-3.251,3.497-4.83c8.11-10.991,17.872-19.475,27.624-27.943   c11.412-9.911,22.59-18.679,33.482-28.678c0.767,8.713-4.032,16.959-8.347,22.932c-8.813,12.197-19.935,21.935-30.917,30.837   c-3.994,3.238-8.317,6.456-12.741,9.591c-1.455,1.029-3.356,1.951-4.135,3.297c-2.252,3.892,1.209,8.295,5.354,7.414   c1.763-0.377,3.633-2.036,5.388-3.277c12.067-8.547,23.387-17.785,34.05-28.842c6.11-6.336,11.762-13.162,16.438-21.816   c4.495-8.319,6.346-17.729,4.039-25.241c-0.294-0.962-0.795-1.817-1.034-2.794c8.944-9.133,17.595-19.381,24.568-31.805   c7.232-12.884,12.229-27.578,13.625-43.02C295.316,241.594,292.613,228.666,286.372,217.855z" data-original="#6B645C" class="active-path" data-old_color="#354EED"/>
</g></g> </svg>
